# xmcd
#
# Track frame offsets: 
#        150
#        28308
#        47100
#        71045
#        92780
#        121645
#        141798
#        171743
#        198348
#        220323
#
# Disc length: 3273 seconds
#
# Revision: 3
# Processed by: cddbd v1.5.2PL0 Copyright (c) Steve Scherf et al.
# Submitted via: ExactAudioCopy v1.0b3
#
DISCID=9a0cc70a
DTITLE=Various Artist - Mo Hoa
DYEAR=1990
DGENRE=Viet Music
TTITLE0=Tuan Vu - Gia Biet Saigon
TTITLE1=Huong Lan - Doi Thong Hai Mo
TTITLE2=Tuan Vu - Em Di Mua Cuoi
TTITLE3=Giao Linh - Ngan Nam Tinh Van Dep
TTITLE4=Nhat Linh - Can Nha Ngoai O
TTITLE5=Tuan Vu - Mo Hoa
TTITLE6=Giao Linh - Buon Oi Den Bao Gio
TTITLE7=Huong Lan - Loi Ve Dat Me
TTITLE8=Nhat Linh - Nguoi Dau Gio
TTITLE9=Giao Linh - Buon Duyen Kiep
EXTD=
EXTT0=
EXTT1=
EXTT2=
EXTT3=
EXTT4=
EXTT5=
EXTT6=
EXTT7=
EXTT8=
EXTT9=
PLAYORDER=
